<?xml version="1.0" encoding="UTF-8" standalone="no"?><svg xmlns="http://www.w3.org/2000/svg" xmlns:xlink="http://www.w3.org/1999/xlink" contentScriptType="application/ecmascript" contentStyleType="text/css" height="295px" preserveAspectRatio="none" style="width:971px;height:295px;" version="1.1" viewBox="0 0 971 295" width="971px" zoomAndPan="magnify"><defs><filter height="300%" id="fw3kz7c3o5cgs" width="300%" x="-1" y="-1"><feGaussianBlur result="blurOut" stdDeviation="2.0"/><feColorMatrix in="blurOut" result="blurOut2" type="matrix" values="0 0 0 0 0 0 0 0 0 0 0 0 0 0 0 0 0 0 .4 0"/><feOffset dx="4.0" dy="4.0" in="blurOut2" result="blurOut3"/><feBlend in="SourceGraphic" in2="blurOut3" mode="normal"/></filter></defs><g><ellipse cx="70" cy="18" fill="#000000" filter="url(#fw3kz7c3o5cgs)" rx="10" ry="10" style="stroke: none; stroke-width: 1.0;"/><rect fill="#FEFECE" filter="url(#fw3kz7c3o5cgs)" height="50" rx="12.5" ry="12.5" style="stroke: #A80036; stroke-width: 1.5;" width="128" x="6" y="106"/><line style="stroke: #A80036; stroke-width: 1.5;" x1="6" x2="134" y1="133.6094" y2="133.6094"/><text fill="#000000" font-family="sans-serif" font-size="14" lengthAdjust="spacingAndGlyphs" textLength="108" x="16" y="125.5332">SHOWED_INDEX</text><rect fill="#FEFECE" filter="url(#fw3kz7c3o5cgs)" height="50" rx="12.5" ry="12.5" style="stroke: #A80036; stroke-width: 1.5;" width="124" x="8" y="234"/><line style="stroke: #A80036; stroke-width: 1.5;" x1="8" x2="132" y1="261.6094" y2="261.6094"/><text fill="#000000" font-family="sans-serif" font-size="14" lengthAdjust="spacingAndGlyphs" textLength="104" x="18" y="253.5332">OPENED_INDEX</text><!--link *start to SHOWED_INDEX--><path d="M70,28.084 C70,43.745 70,76.474 70,100.637 " fill="none" id="*start-SHOWED_INDEX" style="stroke: #A80036; stroke-width: 1.0;"/><polygon fill="#A80036" points="70,105.653,74,96.653,70,100.653,66,96.653,70,105.653" style="stroke: #A80036; stroke-width: 1.0;"/><text fill="#000000" font-family="sans-serif" font-size="13" lengthAdjust="spacingAndGlyphs" textLength="61" x="71" y="72.4951">showIndex</text><!--link SHOWED_INDEX to SHOWED_INDEX--><path d="M134.272,128.005 C153.764,128.08 169,129.078 169,131 C169,132.742 156.487,133.725 139.633,133.95 " fill="none" id="SHOWED_INDEX-SHOWED_INDEX" style="stroke: #A80036; stroke-width: 1.0;"/><polygon fill="#A80036" points="134.272,133.995,143.306,137.9177,139.2718,133.9521,143.2374,129.918,134.272,133.995" style="stroke: #A80036; stroke-width: 1.0;"/><text fill="#000000" font-family="sans-serif" font-size="13" lengthAdjust="spacingAndGlyphs" textLength="59" x="175" y="136.4951">readEntity</text><!--link SHOWED_INDEX to SHOWED_INDEX--><path d="M134.074,125.661 C184.405,123.892 240,125.672 240,131 C240,136.151 188.036,137.986 139.102,136.503 " fill="none" id="SHOWED_INDEX-SHOWED_INDEX-1" style="stroke: #A80036; stroke-width: 1.0;"/><polygon fill="#A80036" points="134.074,136.339,142.9389,140.63,139.0713,136.5019,143.1995,132.6343,134.074,136.339" style="stroke: #A80036; stroke-width: 1.0;"/><text fill="#000000" font-family="sans-serif" font-size="13" lengthAdjust="spacingAndGlyphs" textLength="66" x="246" y="136.4951">readPerson</text><!--link SHOWED_INDEX to SHOWED_INDEX--><path d="M134.036,124.163 C211.587,119.78 318,122.059 318,131 C318,139.749 216.11,142.119 139.073,138.11 " fill="none" id="SHOWED_INDEX-SHOWED_INDEX-2" style="stroke: #A80036; stroke-width: 1.0;"/><polygon fill="#A80036" points="134.036,137.837,142.8055,142.3198,139.0286,138.1085,143.2399,134.3316,134.036,137.837" style="stroke: #A80036; stroke-width: 1.0;"/><text fill="#000000" font-family="sans-serif" font-size="13" lengthAdjust="spacingAndGlyphs" textLength="70" x="324" y="136.4951">readProduct</text><!--link SHOWED_INDEX to SHOWED_INDEX--><path d="M134.268,123.038 C236.47,115.705 400,118.359 400,131 C400,143.431 241.854,146.204 139.408,139.319 " fill="none" id="SHOWED_INDEX-SHOWED_INDEX-3" style="stroke: #A80036; stroke-width: 1.0;"/><polygon fill="#A80036" points="134.268,138.962,142.9698,143.5748,139.256,139.3078,143.5231,135.594,134.268,138.962" style="stroke: #A80036; stroke-width: 1.0;"/><text fill="#000000" font-family="sans-serif" font-size="13" lengthAdjust="spacingAndGlyphs" textLength="56" x="406" y="136.4951">readIndex</text><!--link SHOWED_INDEX to OPENED_INDEX--><path d="M48.8807,156.161 C42.4896,164.954 36.2951,175.361 33,186 C28.3304,201.0766 34.8784,216.7816 43.7006,229.6622 " fill="none" id="SHOWED_INDEX-OPENED_INDEX" style="stroke: #A80036; stroke-width: 1.0;"/><polygon fill="#A80036" points="46.7667,233.9172,44.7499,224.277,43.8434,229.8608,38.2597,228.9543,46.7667,233.9172" style="stroke: #A80036; stroke-width: 1.0;"/><text fill="#000000" font-family="sans-serif" font-size="13" lengthAdjust="spacingAndGlyphs" textLength="27" x="34" y="200.4951">login</text><!--link OPENED_INDEX to SHOWED_INDEX--><path d="M70,233.7805 C70,213.1466 70,183.429 70,161.428 " fill="none" id="OPENED_INDEX-SHOWED_INDEX" style="stroke: #A80036; stroke-width: 1.0;"/><polygon fill="#A80036" points="70,156.294,66,165.294,70,161.294,74,165.294,70,156.294" style="stroke: #A80036; stroke-width: 1.0;"/><text fill="#000000" font-family="sans-serif" font-size="13" lengthAdjust="spacingAndGlyphs" textLength="35" x="71" y="200.4951">logout</text><!--link OPENED_INDEX to OPENED_INDEX--><path d="M132.039,257.5008 C151.582,257.5237 167,258.0234 167,259 C167,259.885 154.338,260.3784 137.418,260.4802 " fill="none" id="OPENED_INDEX-OPENED_INDEX" style="stroke: #A80036; stroke-width: 1.0;"/><polygon fill="#A80036" points="132.039,260.4992,141.0527,264.4683,137.039,260.4821,141.0252,256.4684,132.039,260.4992" style="stroke: #A80036; stroke-width: 1.0;"/><text fill="#000000" font-family="sans-serif" font-size="13" lengthAdjust="spacingAndGlyphs" textLength="80" x="173" y="264.4951">updatePerson</text><!--link OPENED_INDEX to OPENED_INDEX--><path d="M132.36,256.4396 C189.684,255.3809 259,256.2344 259,259 C259,261.6846 193.686,262.5674 137.427,261.6485 " fill="none" id="OPENED_INDEX-OPENED_INDEX-1" style="stroke: #A80036; stroke-width: 1.0;"/><polygon fill="#A80036" points="132.36,261.5604,141.2889,265.7167,137.3592,261.6475,141.4283,257.7179,132.36,261.5604" style="stroke: #A80036; stroke-width: 1.0;"/><text fill="#000000" font-family="sans-serif" font-size="13" lengthAdjust="spacingAndGlyphs" textLength="77" x="265" y="264.4951">createPerson</text><!--link OPENED_INDEX to OPENED_INDEX--><path d="M132.258,255.7514 C218.336,253.3351 348,254.418 348,259 C348,263.4925 223.352,264.6213 137.35,262.3862 " fill="none" id="OPENED_INDEX-OPENED_INDEX-2" style="stroke: #A80036; stroke-width: 1.0;"/><polygon fill="#A80036" points="132.258,262.2486,141.1473,266.4889,137.2562,262.3829,141.3622,258.4918,132.258,262.2486" style="stroke: #A80036; stroke-width: 1.0;"/><text fill="#000000" font-family="sans-serif" font-size="13" lengthAdjust="spacingAndGlyphs" textLength="73" x="354" y="264.4951">updateEntity</text><!--link OPENED_INDEX to OPENED_INDEX--><path d="M132.08,255.2138 C242.014,251.3082 433,252.5703 433,259 C433,265.3292 247.935,266.6511 137.292,262.9655 " fill="none" id="OPENED_INDEX-OPENED_INDEX-3" style="stroke: #A80036; stroke-width: 1.0;"/><polygon fill="#A80036" points="132.08,262.7862,140.9376,267.0924,137.0771,262.9576,141.2119,259.0971,132.08,262.7862" style="stroke: #A80036; stroke-width: 1.0;"/><text fill="#000000" font-family="sans-serif" font-size="13" lengthAdjust="spacingAndGlyphs" textLength="70" x="439" y="264.4951">createEntity</text><!--link OPENED_INDEX to OPENED_INDEX--><path d="M132.39,254.7492 C263.408,249.2921 515,250.709 515,259 C515,267.1858 269.756,268.6709 137.438,263.4553 " fill="none" id="OPENED_INDEX-OPENED_INDEX-4" style="stroke: #A80036; stroke-width: 1.0;"/><polygon fill="#A80036" points="132.39,263.2508,141.2203,267.6126,137.3859,263.4537,141.5449,259.6192,132.39,263.2508" style="stroke: #A80036; stroke-width: 1.0;"/><text fill="#000000" font-family="sans-serif" font-size="13" lengthAdjust="spacingAndGlyphs" textLength="84" x="521" y="264.4951">updateProduct</text><!--link OPENED_INDEX to OPENED_INDEX--><path d="M132.027,254.4248 C285.185,247.2679 611,248.793 611,259 C611,269.0974 292.148,270.6983 137.022,263.8029 " fill="none" id="OPENED_INDEX-OPENED_INDEX-5" style="stroke: #A80036; stroke-width: 1.0;"/><polygon fill="#A80036" points="132.027,263.5752,140.8347,267.9825,137.0218,263.8038,141.2005,259.9908,132.027,263.5752" style="stroke: #A80036; stroke-width: 1.0;"/><text fill="#000000" font-family="sans-serif" font-size="13" lengthAdjust="spacingAndGlyphs" textLength="81" x="617" y="264.4951">createProduct</text><!--link OPENED_INDEX to OPENED_INDEX--><path d="M132.12,254.1176 C305.529,245.2524 704,246.8799 704,259 C704,271.0018 313.273,272.7148 137.264,264.1391 " fill="none" id="OPENED_INDEX-OPENED_INDEX-6" style="stroke: #A80036; stroke-width: 1.0;"/><polygon fill="#A80036" points="132.12,263.8824,140.9087,268.3274,137.1137,264.1324,141.3087,260.3374,132.12,263.8824" style="stroke: #A80036; stroke-width: 1.0;"/><text fill="#000000" font-family="sans-serif" font-size="13" lengthAdjust="spacingAndGlyphs" textLength="76" x="710" y="264.4951">deletePerson</text><!--link OPENED_INDEX to OPENED_INDEX--><path d="M132.147,253.8382 C323.899,243.2403 792,244.9609 792,259 C792,272.9157 332.091,274.7285 137.266,264.4384 " fill="none" id="OPENED_INDEX-OPENED_INDEX-7" style="stroke: #A80036; stroke-width: 1.0;"/><polygon fill="#A80036" points="132.147,264.1618,140.9179,268.642,137.1397,264.4318,141.3499,260.6536,132.147,264.1618" style="stroke: #A80036; stroke-width: 1.0;"/><text fill="#000000" font-family="sans-serif" font-size="13" lengthAdjust="spacingAndGlyphs" textLength="69" x="798" y="264.4951">deleteEntity</text><!--link OPENED_INDEX to OPENED_INDEX--><path d="M132.158,253.5758 C340.433,241.231 873,243.0391 873,259 C873,274.8285 349.238,276.738 137.412,264.7287 " fill="none" id="OPENED_INDEX-OPENED_INDEX-8" style="stroke: #A80036; stroke-width: 1.0;"/><polygon fill="#A80036" points="132.158,264.4242,140.9121,268.937,137.1497,264.7128,141.3739,260.9503,132.158,264.4242" style="stroke: #A80036; stroke-width: 1.0;"/><text fill="#000000" font-family="sans-serif" font-size="13" lengthAdjust="spacingAndGlyphs" textLength="80" x="879" y="264.4951">deleteProduct</text><!--
@startuml

top to bottom direction

[*] -down-> SHOWED_INDEX : showIndex

SHOWED_INDEX - -> SHOWED_INDEX : readEntity
SHOWED_INDEX - -> SHOWED_INDEX : readPerson
SHOWED_INDEX - -> SHOWED_INDEX : readProduct
SHOWED_INDEX - -> SHOWED_INDEX : readIndex

SHOWED_INDEX - -> OPENED_INDEX : login

OPENED_INDEX - -> OPENED_INDEX : updatePerson
OPENED_INDEX - -> OPENED_INDEX : createPerson
OPENED_INDEX - -> OPENED_INDEX : updateEntity
OPENED_INDEX - -> OPENED_INDEX : createEntity
OPENED_INDEX - -> OPENED_INDEX : updateProduct
OPENED_INDEX - -> OPENED_INDEX : createProduct
OPENED_INDEX - -> OPENED_INDEX : deletePerson
OPENED_INDEX - -> OPENED_INDEX : deleteEntity
OPENED_INDEX - -> OPENED_INDEX : deleteProduct

OPENED_INDEX - -> SHOWED_INDEX : logout
@enduml

PlantUML version 1.2019.05(Sat Apr 20 18:45:36 CEST 2019)
(GPL source distribution)
Java Runtime: OpenJDK Runtime Environment
JVM: OpenJDK 64-Bit Server VM
Java Version: 1.8.0_222-b10
Operating System: Windows 10
OS Version: 10.0
Default Encoding: windows-1252
Language: es
Country: ES
--></g></svg>