<?xml version="1.0" encoding="UTF-8" standalone="no"?><svg xmlns="http://www.w3.org/2000/svg" xmlns:xlink="http://www.w3.org/1999/xlink" contentScriptType="application/ecmascript" contentStyleType="text/css" height="448px" preserveAspectRatio="none" style="width:151px;height:448px;" version="1.1" viewBox="0 0 151 448" width="151px" zoomAndPan="magnify"><defs><filter height="300%" id="fxuq4wmlrwtoj" width="300%" x="-1" y="-1"><feGaussianBlur result="blurOut" stdDeviation="2.0"/><feColorMatrix in="blurOut" result="blurOut2" type="matrix" values="0 0 0 0 0 0 0 0 0 0 0 0 0 0 0 0 0 0 .4 0"/><feOffset dx="4.0" dy="4.0" in="blurOut2" result="blurOut3"/><feBlend in="SourceGraphic" in2="blurOut3" mode="normal"/></filter></defs><g><!--class Person--><rect fill="#FEFECE" filter="url(#fxuq4wmlrwtoj)" height="103.3438" id="Person" style="stroke: #A80036; stroke-width: 1.5;" width="86" x="6" y="334"/><ellipse cx="27.3" cy="350" fill="#ADD1B2" rx="11" ry="11" style="stroke: #A80036; stroke-width: 1.0;"/><path d="M30.0656,345.875 Q30.2219,345.6563 30.4094,345.5469 Q30.5969,345.4375 30.8156,345.4375 Q31.1906,345.4375 31.425,345.6953 Q31.6594,345.9531 31.6594,346.5625 L31.6594,348.0156 Q31.6594,348.625 31.425,348.8906 Q31.1906,349.1563 30.8156,349.1563 Q30.4719,349.1563 30.2688,348.9531 Q30.0656,348.7656 29.9563,348.25 Q29.9094,347.8906 29.7219,347.7031 Q29.3938,347.3281 28.7844,347.1094 Q28.175,346.8906 27.55,346.8906 Q26.7844,346.8906 26.1516,347.2188 Q25.5188,347.5469 25.0266,348.2969 Q24.5344,349.0469 24.5344,350.0781 L24.5344,351.1719 Q24.5344,352.4063 25.425,353.2266 Q26.3156,354.0469 27.9094,354.0469 Q28.8469,354.0469 29.5031,353.7969 Q29.8938,353.6406 30.3156,353.2031 Q30.5813,352.9375 30.7297,352.8594 Q30.8781,352.7813 31.0813,352.7813 Q31.4094,352.7813 31.6672,353.0391 Q31.925,353.2969 31.925,353.6406 Q31.925,353.9844 31.5813,354.3906 Q31.0813,354.9688 30.2844,355.2969 Q29.2063,355.75 27.9094,355.75 Q26.3938,355.75 25.1906,355.125 Q24.2063,354.625 23.5188,353.5547 Q22.8313,352.4844 22.8313,351.2031 L22.8313,350.0469 Q22.8313,348.7188 23.4484,347.5703 Q24.0656,346.4219 25.1594,345.8047 Q26.2531,345.1875 27.4875,345.1875 Q28.2219,345.1875 28.8703,345.3516 Q29.5188,345.5156 30.0656,345.875 Z "/><text fill="#000000" font-family="sans-serif" font-size="12" lengthAdjust="spacingAndGlyphs" textLength="40" x="42.7" y="354.9102">Person</text><line style="stroke: #A80036; stroke-width: 1.5;" x1="7" x2="91" y1="366" y2="366"/><ellipse cx="17" cy="378.418" fill="none" rx="3" ry="3" style="stroke: #038048; stroke-width: 1.0;"/><text fill="#000000" font-family="sans-serif" font-size="11" lengthAdjust="spacingAndGlyphs" textLength="60" x="26" y="381.4189">name: String</text><ellipse cx="17" cy="392.2539" fill="none" rx="3" ry="3" style="stroke: #038048; stroke-width: 1.0;"/><text fill="#000000" font-family="sans-serif" font-size="11" lengthAdjust="spacingAndGlyphs" textLength="49" x="26" y="395.2549">birth: Date</text><ellipse cx="17" cy="406.0898" fill="none" rx="3" ry="3" style="stroke: #038048; stroke-width: 1.0;"/><text fill="#000000" font-family="sans-serif" font-size="11" lengthAdjust="spacingAndGlyphs" textLength="55" x="26" y="409.0908">death: Date</text><ellipse cx="17" cy="419.9258" fill="none" rx="3" ry="3" style="stroke: #038048; stroke-width: 1.0;"/><text fill="#000000" font-family="sans-serif" font-size="11" lengthAdjust="spacingAndGlyphs" textLength="53" x="26" y="422.9268">wiki: String</text><line style="stroke: #A80036; stroke-width: 1.5;" x1="7" x2="91" y1="429.3438" y2="429.3438"/><!--class Entity--><rect fill="#FEFECE" filter="url(#fxuq4wmlrwtoj)" height="103.3438" id="Entity" style="stroke: #A80036; stroke-width: 1.5;" width="86" x="54" y="171"/><ellipse cx="80.25" cy="187" fill="#ADD1B2" rx="11" ry="11" style="stroke: #A80036; stroke-width: 1.0;"/><path d="M83.0156,182.875 Q83.1719,182.6563 83.3594,182.5469 Q83.5469,182.4375 83.7656,182.4375 Q84.1406,182.4375 84.375,182.6953 Q84.6094,182.9531 84.6094,183.5625 L84.6094,185.0156 Q84.6094,185.625 84.375,185.8906 Q84.1406,186.1563 83.7656,186.1563 Q83.4219,186.1563 83.2188,185.9531 Q83.0156,185.7656 82.9063,185.25 Q82.8594,184.8906 82.6719,184.7031 Q82.3438,184.3281 81.7344,184.1094 Q81.125,183.8906 80.5,183.8906 Q79.7344,183.8906 79.1016,184.2188 Q78.4688,184.5469 77.9766,185.2969 Q77.4844,186.0469 77.4844,187.0781 L77.4844,188.1719 Q77.4844,189.4063 78.375,190.2266 Q79.2656,191.0469 80.8594,191.0469 Q81.7969,191.0469 82.4531,190.7969 Q82.8438,190.6406 83.2656,190.2031 Q83.5313,189.9375 83.6797,189.8594 Q83.8281,189.7813 84.0313,189.7813 Q84.3594,189.7813 84.6172,190.0391 Q84.875,190.2969 84.875,190.6406 Q84.875,190.9844 84.5313,191.3906 Q84.0313,191.9688 83.2344,192.2969 Q82.1563,192.75 80.8594,192.75 Q79.3438,192.75 78.1406,192.125 Q77.1563,191.625 76.4688,190.5547 Q75.7813,189.4844 75.7813,188.2031 L75.7813,187.0469 Q75.7813,185.7188 76.3984,184.5703 Q77.0156,183.4219 78.1094,182.8047 Q79.2031,182.1875 80.4375,182.1875 Q81.1719,182.1875 81.8203,182.3516 Q82.4688,182.5156 83.0156,182.875 Z "/><text fill="#000000" font-family="sans-serif" font-size="12" lengthAdjust="spacingAndGlyphs" textLength="29" x="96.75" y="191.9102">Entity</text><line style="stroke: #A80036; stroke-width: 1.5;" x1="55" x2="139" y1="203" y2="203"/><ellipse cx="65" cy="215.418" fill="none" rx="3" ry="3" style="stroke: #038048; stroke-width: 1.0;"/><text fill="#000000" font-family="sans-serif" font-size="11" lengthAdjust="spacingAndGlyphs" textLength="60" x="74" y="218.4189">name: String</text><ellipse cx="65" cy="229.2539" fill="none" rx="3" ry="3" style="stroke: #038048; stroke-width: 1.0;"/><text fill="#000000" font-family="sans-serif" font-size="11" lengthAdjust="spacingAndGlyphs" textLength="49" x="74" y="232.2549">birth: Date</text><ellipse cx="65" cy="243.0898" fill="none" rx="3" ry="3" style="stroke: #038048; stroke-width: 1.0;"/><text fill="#000000" font-family="sans-serif" font-size="11" lengthAdjust="spacingAndGlyphs" textLength="55" x="74" y="246.0908">death: Date</text><ellipse cx="65" cy="256.9258" fill="none" rx="3" ry="3" style="stroke: #038048; stroke-width: 1.0;"/><text fill="#000000" font-family="sans-serif" font-size="11" lengthAdjust="spacingAndGlyphs" textLength="53" x="74" y="259.9268">wiki: String</text><line style="stroke: #A80036; stroke-width: 1.5;" x1="55" x2="139" y1="266.3438" y2="266.3438"/><!--class Product--><rect fill="#FEFECE" filter="url(#fxuq4wmlrwtoj)" height="103.3438" id="Product" style="stroke: #A80036; stroke-width: 1.5;" width="86" x="6" y="8"/><ellipse cx="26.4" cy="24" fill="#ADD1B2" rx="11" ry="11" style="stroke: #A80036; stroke-width: 1.0;"/><path d="M29.1656,19.875 Q29.3219,19.6563 29.5094,19.5469 Q29.6969,19.4375 29.9156,19.4375 Q30.2906,19.4375 30.525,19.6953 Q30.7594,19.9531 30.7594,20.5625 L30.7594,22.0156 Q30.7594,22.625 30.525,22.8906 Q30.2906,23.1563 29.9156,23.1563 Q29.5719,23.1563 29.3688,22.9531 Q29.1656,22.7656 29.0563,22.25 Q29.0094,21.8906 28.8219,21.7031 Q28.4938,21.3281 27.8844,21.1094 Q27.275,20.8906 26.65,20.8906 Q25.8844,20.8906 25.2516,21.2188 Q24.6188,21.5469 24.1266,22.2969 Q23.6344,23.0469 23.6344,24.0781 L23.6344,25.1719 Q23.6344,26.4063 24.525,27.2266 Q25.4156,28.0469 27.0094,28.0469 Q27.9469,28.0469 28.6031,27.7969 Q28.9938,27.6406 29.4156,27.2031 Q29.6813,26.9375 29.8297,26.8594 Q29.9781,26.7813 30.1813,26.7813 Q30.5094,26.7813 30.7672,27.0391 Q31.025,27.2969 31.025,27.6406 Q31.025,27.9844 30.6813,28.3906 Q30.1813,28.9688 29.3844,29.2969 Q28.3063,29.75 27.0094,29.75 Q25.4938,29.75 24.2906,29.125 Q23.3063,28.625 22.6188,27.5547 Q21.9313,26.4844 21.9313,25.2031 L21.9313,24.0469 Q21.9313,22.7188 22.5484,21.5703 Q23.1656,20.4219 24.2594,19.8047 Q25.3531,19.1875 26.5875,19.1875 Q27.3219,19.1875 27.9703,19.3516 Q28.6188,19.5156 29.1656,19.875 Z "/><text fill="#000000" font-family="sans-serif" font-size="12" lengthAdjust="spacingAndGlyphs" textLength="42" x="41.6" y="28.9102">Product</text><line style="stroke: #A80036; stroke-width: 1.5;" x1="7" x2="91" y1="40" y2="40"/><ellipse cx="17" cy="52.418" fill="none" rx="3" ry="3" style="stroke: #038048; stroke-width: 1.0;"/><text fill="#000000" font-family="sans-serif" font-size="11" lengthAdjust="spacingAndGlyphs" textLength="60" x="26" y="55.4189">name: String</text><ellipse cx="17" cy="66.2539" fill="none" rx="3" ry="3" style="stroke: #038048; stroke-width: 1.0;"/><text fill="#000000" font-family="sans-serif" font-size="11" lengthAdjust="spacingAndGlyphs" textLength="49" x="26" y="69.2549">birth: Date</text><ellipse cx="17" cy="80.0898" fill="none" rx="3" ry="3" style="stroke: #038048; stroke-width: 1.0;"/><text fill="#000000" font-family="sans-serif" font-size="11" lengthAdjust="spacingAndGlyphs" textLength="55" x="26" y="83.0908">death: Date</text><ellipse cx="17" cy="93.9258" fill="none" rx="3" ry="3" style="stroke: #038048; stroke-width: 1.0;"/><text fill="#000000" font-family="sans-serif" font-size="11" lengthAdjust="spacingAndGlyphs" textLength="53" x="26" y="96.9268">wiki: String</text><line style="stroke: #A80036; stroke-width: 1.5;" x1="7" x2="91" y1="103.3438" y2="103.3438"/><!--link Product to Person--><path d="M42.3522,111.015 C40.1852,129.812 38.0641,151.346 37,171 C34.5252,216.711 34.5252,228.289 37,274 C37.9643,291.811 39.7968,311.167 41.7448,328.63 " fill="none" id="Product-Person" style="stroke: #A80036; stroke-width: 1.0;"/><polygon fill="#A80036" points="42.3522,333.985,45.3109,324.5911,41.7879,329.0169,37.3621,325.4939,42.3522,333.985" style="stroke: #A80036; stroke-width: 1.0;"/><text fill="#000000" font-family="sans-serif" font-size="13" lengthAdjust="spacingAndGlyphs" textLength="5" x="36.0658" y="323.1114">*</text><!--link Product to Entity--><path d="M64.1875,111.441 C69.3592,128.788 75.165,148.262 80.4389,165.951 " fill="none" id="Product-Entity" style="stroke: #A80036; stroke-width: 1.0;"/><polygon fill="#A80036" points="81.9113,170.89,83.1731,161.1223,80.4827,166.0984,75.5066,163.408,81.9113,170.89" style="stroke: #A80036; stroke-width: 1.0;"/><text fill="#000000" font-family="sans-serif" font-size="13" lengthAdjust="spacingAndGlyphs" textLength="5" x="74.4379" y="160.003">*</text><!--link Entity to Person--><path d="M78.0065,287.207 C74.684,298.351 71.2276,309.945 67.9075,321.081 " fill="none" id="Entity-Person" style="stroke: #A80036; stroke-width: 1.0;"/><polygon fill="#A80036" points="64.0887,333.89,70.4934,326.408,65.5173,329.0984,62.8269,324.1223,64.0887,333.89" style="stroke: #A80036; stroke-width: 1.0;"/><line style="stroke: #A80036; stroke-width: 1.0;" x1="65.5173" x2="67.803" y1="329.0984" y2="321.432"/><polygon fill="#FFFFFF" points="81.8125,274.441,76.265,279.048,78.3839,285.9408,83.9315,281.3337,81.8125,274.441" style="stroke: #A80036; stroke-width: 1.0;"/><text fill="#000000" font-family="sans-serif" font-size="13" lengthAdjust="spacingAndGlyphs" textLength="5" x="60.859" y="323.003">*</text><!--
@startuml
class Person {
+ name: String
+ birth: Date
+ death: Date
+ wiki: String
}

class Entity {
+ name: String
+ birth: Date
+ death: Date
+ wiki: String
}

class Product {
+ name: String
+ birth: Date
+ death: Date
+ wiki: String
}

Product -down-> "*" Person
Product -down-> "*" Entity
Entity o-down-> "*" Person

@enduml

PlantUML version 1.2019.05(Sat Apr 20 18:45:36 CEST 2019)
(GPL source distribution)
Java Runtime: OpenJDK Runtime Environment
JVM: OpenJDK 64-Bit Server VM
Java Version: 1.8.0_222-b10
Operating System: Windows 10
OS Version: 10.0
Default Encoding: windows-1252
Language: es
Country: ES
--></g></svg>